<?xml version="1.0" encoding="utf-8"?>
<svg version="1.1" id="Mullvad_VPN_Logo_Color_Neg" xmlns="http://www.w3.org/2000/svg" xmlns:xlink="http://www.w3.org/1999/xlink"
	 x="0px" y="0px" viewBox="0 0 1405 400" style="enable-background:new 0 0 1405 400;" xml:space="preserve">
<style type="text/css">
	.background{fill-rule:evenodd;clip-rule:evenodd;fill:#192E45;}
	.fur{fill-rule:evenodd;clip-rule:evenodd;fill:#D2943B;}
	.nose{fill-rule:evenodd;clip-rule:evenodd;fill:#FFCD86;}
	.helmet{fill-rule:evenodd;clip-rule:evenodd;fill:#FFD524;}
	.lamp-light{fill:#FFFFFF;}
	.lamp-ring{fill:#192E45;}
	.text{fill:#FFFFFF;}
</style>
<g id="mole">
	<path id="bg" class="background" d="M74,200c0,69.6,56.5,126,126,126
		s126-56.4,126-126S269.6,74,200,74S74,130.4,74,200L74,200L74,200L74,200z"/>
	<g id="body">
		<path id="fur" class="fur" d="M97.9,170.6L90.8,185l9.6-13.4
			c0,0.1-0.6,19.3-0.6,19.3l2.7-14.5c7.2,13.7,23.1,34.8,45.4,50.5c1.7,1.2,3.9,3.3,4.6,4.1c0,0,21.3,10.8,54.1-14.2
			c0.3-0.2,0.7-0.4,1-0.6l0.5,0.3l7.2,4.8c-2.5-0.7-7.3-1.9-7.3-1.9c-15.8,18.2-41.5,21.2-55.3,12c-0.6-0.4-4,1-4.6,3
			c-0.4,1.1,0,2.3,0.5,3.2c2.8,5.2,7,4.7,5,10.8c-1.4,3.3-3.4,6.5-5.6,9.5c-4.6,6.2-11.8,11.7-11.1,15
			c32.6,40.2,106.1,34.6,134.1-1.3c-0.4-5.2-8.6-7.7-14.3-20.4c1.6,0.5,4,1.2,4,1.1c0-0.1-6.8-11.1-7.1-12.2l4.4,0.3
			c0,0-5.8-7.2-6-7.9l5.9-0.8c0,0-7.4-8.5-7.5-9.2l7.5,1.2l-8.2-9.9h3.9l-4.6-6.7l-37.3-14.7c-14.3-8.9-27-19.8-36.6-28.2l-19.3-9.4
			c-18.5-1.4-35.8-0.9-46.4,1.2l6.8-11.6l-9.9,11.8c-0.6-0.2-1.3-0.4-1.3-0.4l0.7-15l-3.3,14L97.9,170.6z"/>
		<path id="nose" class="nose" d="M102.4,154.8c-4.9-2.3-10.6,1-11.6,5.5
			c-1.2,4.3,1.8,9.6,7.1,10.3C102.9,167.5,107.2,159.5,102.4,154.8z"/>
	</g>
	<g id="helmet">
		<path id="helmet" class="helmet" d="M175.2,143.9c-1.5-4.1-1.1-9.4,1-14.4
			c3-6.9,8.7-11.5,14.1-11.5c1.1,0,2.1,0.2,3.1,0.6c3.1-2.8,6.7-5.1,10.7-6.7c22-8.8,54.3,6.9,62.6,28.5c4,10.5,2.8,21.9-0.6,32.4
			c-2.8,8.6-13,21-9.2,30.3c-1.5-0.4-32.8-11-41.8-15.8c-14.1-8.8-26.7-19.6-36.2-27.9l-0.3-0.3l-32-15.2c-0.4-0.2-0.8-0.4-1.1-0.6
			C149.9,143.5,167.4,145.6,175.2,143.9"/>
		<g id="lamp">
			
				<ellipse id="lamp-light" transform="matrix(0.4007 -0.9162 0.9162 0.4007 -10.6017 252.6081)" class="lamp-light" cx="187.8" cy="134.4" rx="13.6" ry="8.1"/>
			<path id="lamp-ring" class="lamp-ring" d="M194.1,120.1
				c-5.3-2.3-12.4,2.2-15.9,10.1s-1.9,16.1,3.4,18.5c5.3,2.3,12.4-2.2,15.9-10.1C201,130.7,199.4,122.5,194.1,120.1z M194.6,137.4
				c-2.8,6.3-8.1,10.1-11.8,8.5c-3.8-1.7-4.6-8.1-1.8-14.5c2.8-6.3,8.1-10.1,11.9-8.5C196.6,124.6,197.4,131.1,194.6,137.4z"/>
		</g>
	</g>
</g>
<g id="text">
	<path class="text" d="M371,149.7c0-0.9,0.6-1.5,1.5-1.5h17.8c1.2,0,2,0.4,2.4,1.5l25.8,58.3h0.6l25.3-58.3c0.4-1,1.2-1.5,2.4-1.5
		h17.5c0.9,0,1.5,0.6,1.5,1.5v99.2c0,0.9-0.6,1.5-1.5,1.5h-17c-0.9,0-1.5-0.6-1.5-1.5v-57.5h-0.6l-18.9,43.1c-0.6,1.4-1.5,2-2.8,2
		h-10.3c-1.3,0-2.2-0.6-2.8-2l-18.9-43.1h-0.6v57.5c0,0.9-0.6,1.5-1.5,1.5h-16.9c-0.9,0-1.5-0.6-1.5-1.5V149.7z"/>
	<path class="text" d="M488.1,212.8v-63.1c0-0.9,0.6-1.5,1.5-1.5h19c0.9,0,1.5,0.6,1.5,1.5v63.7c0,12.1,6.8,19,17.1,19
		c10.2,0,16.9-6.9,16.9-19v-63.7c0-0.9,0.6-1.5,1.5-1.5h19c0.9,0,1.5,0.6,1.5,1.5v63.1c0,25.3-16.2,39.2-39,39.2
		C504.3,252,488.1,238.2,488.1,212.8z"/>
	<path class="text" d="M588.3,149.7c0-0.9,0.6-1.5,1.5-1.5h19c0.9,0,1.5,0.6,1.5,1.5v80.1c0,0.6,0.3,0.9,0.9,0.9h45
		c0.9,0,1.5,0.6,1.5,1.5v16.6c0,0.9-0.6,1.5-1.5,1.5h-66.4c-0.9,0-1.5-0.6-1.5-1.5V149.7z"/>
	<path class="text" d="M673.9,149.7c0-0.9,0.6-1.5,1.5-1.5h19c0.9,0,1.5,0.6,1.5,1.5v80.1c0,0.6,0.3,0.9,0.9,0.9h45
		c0.9,0,1.5,0.6,1.5,1.5v16.6c0,0.9-0.6,1.5-1.5,1.5h-66.4c-0.9,0-1.5-0.6-1.5-1.5V149.7z"/>
	<path class="text" d="M774.9,250.2c-1,0-1.6-0.6-1.9-1.5l-32.4-99c-0.3-1.1,0.3-1.6,1.3-1.6h19.5c1,0,1.7,0.4,2,1.5l20.4,67h0.4
		l19.8-67c0.3-1,0.9-1.5,1.9-1.5h19.3c0.9,0,1.5,0.6,1.2,1.6l-32.4,99c-0.3,0.9-0.9,1.5-1.8,1.5H774.9L774.9,250.2z"/>
	<path class="text" d="M862.4,149.7c0.3-0.9,0.9-1.5,2-1.5h18.9c1,0,1.6,0.6,1.9,1.5l34.5,99.2c0.3,0.9,0,1.5-1,1.5h-19.5
		c-1,0-1.7-0.5-2-1.5l-5.8-17.8h-35.7l-5.7,17.8c-0.3,1-0.9,1.5-2,1.5h-19.6c-1,0-1.3-0.6-1-1.5L862.4,149.7z M885.4,212.1
		l-11.5-35.9h-0.4L862,212L885.4,212.1L885.4,212.1z"/>
	<path class="text" d="M934.6,149.7c0-0.9,0.6-1.5,1.5-1.5H974c17.8,0,30.3,7.6,35.2,22.9c1.8,5.7,2.7,11.4,2.7,28.1
		s-0.9,22.3-2.7,28.1c-4.9,15.3-17.4,22.9-35.2,22.9h-37.9c-0.9,0-1.5-0.6-1.5-1.5V149.7z M957.5,230.7H969c10.2,0,16.3-3,18.9-11.2
		c1-3,1.7-6.9,1.7-20.1c0-13.2-0.6-17.1-1.7-20.1c-2.5-8.2-8.7-11.2-18.9-11.2h-11.5c-0.6,0-0.9,0.3-0.9,0.9v61
		C956.6,230.2,956.9,230.7,957.5,230.7z"/>
	<path class="text" d="M1092.5,250.2c-1.1,0-1.7-0.6-2-1.5l-32.4-99c-0.3-1.1,0.3-1.6,1.3-1.6h19.5c1,0,1.7,0.4,2,1.5l20.4,67h0.4
		l19.8-67c0.3-1,0.9-1.5,1.9-1.5h19.3c0.9,0,1.5,0.6,1.2,1.6l-32.4,99c-0.3,0.9-0.9,1.5-1.8,1.5H1092.5L1092.5,250.2z"/>
	<path class="text" d="M1160,250.2c-0.9,0-1.5-0.6-1.5-1.5v-99.2c0-0.9,0.6-1.5,1.5-1.5h39.6c22.2,0,35.5,13.3,35.5,32.9
		c0,19.2-13.5,32.8-35.5,32.8h-18.1c-0.6,0-0.9,0.3-0.9,0.9v34.1c0,0.9-0.6,1.5-1.5,1.5L1160,250.2L1160,250.2z M1213.1,181.1
		c0-8.2-5.5-13.8-14.8-13.8h-16.8c-0.6,0-0.9,0.3-0.9,0.9v25.6c0,0.6,0.3,0.9,0.9,0.9h16.8C1207.5,194.8,1213.1,189.4,1213.1,181.1z
		"/>
	<path class="text" d="M1252.3,149.7c0-0.9,0.6-1.5,1.5-1.5h18c1,0,2,0.4,2.5,1.5l36,64.3h0.8v-64.3c0-0.9,0.6-1.5,1.5-1.5h16.9
		c0.9,0,1.5,0.6,1.5,1.5v99.2c0,0.9-0.6,1.5-1.5,1.5h-17.8c-1.2,0-2-0.5-2.5-1.5l-36.1-64.1h-0.8v64.1c0,0.9-0.6,1.5-1.5,1.5h-16.9
		c-0.9,0-1.5-0.6-1.5-1.5L1252.3,149.7L1252.3,149.7z"/>
</g>
</svg>
